Eager to land a journalistic position, Adam White goes to work as an advice-giving newspaper columnist



 
http://www.imdb.com/title/tt0053017/




Awards:
Nominated for Oscar. Another 1 nomination




Director:
Vincent J. Donehue





	Montgomery Clift	... 	Adam White

	Robert Ryan	... 	William Shrike

	Myrna Loy	... 	Florence Shrike
	Dolores Hart	... 	Justy Sargeant

	Maureen Stapleton	... 	Fay Doyle




Video
      Format : MPEG-4 Visual
      Format profile : Simple@L3
      Format settings, BVOP : No
      Format settings, QPel : No
      Format settings, GMC : No warppoints
      Format settings, Matrix : Default
      Codec ID : XVID
      Codec ID/Hint : XviD
      Duration : 1h 43mn
      Bit rate : 1 402 Kbps
      Width : 640 pixels
      Height : 496 pixels
      Display aspect ratio : 1.290
      Frame rate : 23.976 fps
      Resolution : 24 bits
      Colorimetry : 4:2:0
      Scan type : Progressive
      Bits/(Pixel*Frame) : 0.184
      Stream size : 1.01 GiB (92%)
      Writing library : XviD 1.2.0SMP (UTC 2006-01-08)
   Audio
      Format : MPEG Audio
      Format version : Version 1
      Format profile : Layer 3
      Codec ID : 55
      Codec ID/Hint : MP3
      Duration : 1h 43mn
      Bit rate mode : Variable
      Bit rate : 103 Kbps
      Channel(s) : 2 channels
      Sampling rate : 48.0 KHz
      Resolution : 16 bits
      Stream size : 76.3 MiB (7%)
      Alignment : Aligned on interleaves
      Interleave, duration : 24 ms (0.58 video frame)
      Interleave, preload duration : 590 ms
      Language : ???



